# xmcd
#
# Track frame offsets: 
#        150
#        16472
#        33082
#        49748
#        63787
#        73165
#        89353
#        110183
#        127541
#        140795
#        157941
#        176890
#        187342
#        207500
#        223994
#        236307
#        257866
#        274820
#
# Disc length: 3877 seconds
#
# Revision: 0
# Processed by: cddbd v1.5.2PL0 Copyright (c) Steve Scherf et al.
# Submitted via: ExactAudioCopy v0.99pb5
#
DISCID=140f2312
DTITLE=The Nits - Kilo
DYEAR=1987
DGENRE=
TTITLE0=Bike In Head
TTITLE1=Port of Amsterdam
TTITLE2=Typist of Candy
TTITLE3=Home Before Dark
TTITLE4=The Singing Telegram
TTITLE5=Erom On
TTITLE6=Sleep (What Happens to Your Head)
TTITLE7=Pillow Talk
TTITLE8=Cabins
TTITLE9=Under a Canoe
TTITLE10=Crane-Driver
TTITLE11=5 Hammering Men
TTITLE12=Sketches Of Spain
TTITLE13=Bild Am Sonntag (As Usual)
TTITLE14=Acres Of Tintoretto
TTITLE15=Dapper Street
TTITLE16=Memories Are New III
TTITLE17=Your Next Tyres
EXTD=
EXTT0=
EXTT1=
EXTT2=
EXTT3=
EXTT4=
EXTT5=
EXTT6=
EXTT7=
EXTT8=
EXTT9=
EXTT10=
EXTT11=
EXTT12=
EXTT13=
EXTT14=
EXTT15=
EXTT16=
EXTT17=
PLAYORDER=
